<svg xmlns="http://www.w3.org/2000/svg" width="48" height="30" viewBox="0 0 48 30" fill="none">
  <path d="M24.9182 0.338641L14.6953 0.338641L24.9182 10.5615L24.9182 0.338641Z" fill="white" />
  <path d="M24.9182 29.7292L24.9182 19.5063L14.6953 29.7292L24.9182 29.7292Z" fill="white" />
  <path
    d="M-6.42356e-07 15.0341C-2.87593e-07 23.1501 6.57935 29.7295 14.6954 29.7295L14.6954 0.338703C6.57935 0.338703 -9.9712e-07 6.91806 -6.42356e-07 15.0341Z"
    fill="#DEFFFE"
  />
  <rect
    x="28.1128"
    y="29.7295"
    width="7.66716"
    height="19.8068"
    transform="rotate(-90 28.1128 29.7295)"
    fill="#316BF4"
  />
  <path
    d="M47.9195 10.0901C47.9195 15.5134 43.5231 19.9098 38.0999 19.9098C32.6767 19.9098 28.2803 15.5134 28.2803 10.0901C28.2803 4.6669 32.6767 0.270509 38.0999 0.270508C43.5231 0.270507 47.9195 4.6669 47.9195 10.0901Z"
    fill="white"
  />
</svg>
