<svg width="19" height="19" viewBox="0 0 19 19" fill="none" xmlns="http://www.w3.org/2000/svg">
  <path
    d="M17.4107 0C18.1222 0 18.75 0.62779 18.75 1.38114V17.4107C18.75 18.1641 18.1222 18.75 17.4107 18.75H1.29743C0.585938 18.75 0 18.1641 0 17.4107V1.38114C0 0.62779 0.585938 0 1.29743 0H17.4107ZM5.65011 16.0714V7.15681H2.88783V16.0714H5.65011ZM4.26897 5.90123C5.14788 5.90123 5.85938 5.18973 5.85938 4.31083C5.85938 3.43192 5.14788 2.67857 4.26897 2.67857C3.34821 2.67857 2.63672 3.43192 2.63672 4.31083C2.63672 5.18973 3.34821 5.90123 4.26897 5.90123ZM16.0714 16.0714V11.1747C16.0714 8.78906 15.5273 6.90569 12.7232 6.90569C11.3839 6.90569 10.4632 7.65904 10.0865 8.37054H10.0446V7.15681H7.40792V16.0714H10.1702V11.6769C10.1702 10.505 10.3795 9.375 11.8443 9.375C13.2673 9.375 13.2673 10.7143 13.2673 11.7188V16.0714H16.0714Z"
    fill="currentcolor"
  />
</svg>
