<svg width="57" height="50" viewBox="0 0 57 50" fill="none" xmlns="http://www.w3.org/2000/svg">
  <path
    d="M15.3561 41.7499H14.8196L12.1415 39.0719V38.5354L16.2356 34.4413H19.072L19.4502 34.8195V37.6559L15.3561 41.7499Z"
    fill="#32E6E2"
  />
  <path
    d="M12.1415 11.4599V10.9234L14.8196 8.24533H15.3561L19.4502 12.3394V15.1758L19.072 15.554H16.2356L12.1415 11.4599Z"
    fill="#32E6E2"
  />
  <path
    d="M35.7166 33.1176H31.8204L31.495 32.7922V23.6718C31.495 22.0491 30.8573 20.7914 28.9004 20.7474C27.8934 20.7211 26.7412 20.7474 25.5099 20.7958L25.3252 20.9849V32.7878L24.9998 33.1132H21.1036L20.7782 32.7878V17.2074L21.1036 16.882H29.8723C33.2803 16.882 36.042 19.6437 36.042 23.0517V32.7922L35.7166 33.1176Z"
    fill="white"
  />
  <path
    d="M15.9102 27.2777H0.325416L0 26.9523V23.0473L0.325416 22.7219H15.9102L16.2356 23.0473V26.9523L15.9102 27.2777Z"
    fill="#32E6E2"
  />
  <path
    d="M56.4992 27.2777H40.9144L40.589 26.9523V23.0473L40.9144 22.7219H56.4992L56.8246 23.0473V26.9523L56.4992 27.2777Z"
    fill="#32E6E2"
  />
  <path
    d="M26.1652 12.014V0.325416L26.4906 0H30.3956L30.721 0.325416V12.014L30.3956 12.3394H26.4906L26.1652 12.014Z"
    fill="#32E6E2"
  />
  <path
    d="M26.1652 49.6742V37.9857L26.4906 37.6603H30.3956L30.721 37.9857V49.6742L30.3956 49.9997H26.4906L26.1652 49.6742Z"
    fill="#32E6E2"
  />
</svg>
