<svg width="20" height="19" viewBox="0 0 20 19" fill="none" xmlns="http://www.w3.org/2000/svg">
  <path
    d="M10.1459 4.54102C12.7826 4.54102 14.959 6.71736 14.959 9.35407C14.959 12.0326 12.7826 14.1671 10.1459 14.1671C7.46736 14.1671 5.33287 12.0326 5.33287 9.35407C5.33287 6.71736 7.46736 4.54102 10.1459 4.54102ZM10.1459 12.493C11.8619 12.493 13.243 11.1119 13.243 9.35407C13.243 7.63811 11.8619 6.25698 10.1459 6.25698C8.38811 6.25698 7.00698 7.63811 7.00698 9.35407C7.00698 11.1119 8.42997 12.493 10.1459 12.493ZM16.2564 4.3736C16.2564 5.00139 15.7542 5.50363 15.1264 5.50363C14.4986 5.50363 13.9964 5.00139 13.9964 4.3736C13.9964 3.74581 14.4986 3.24358 15.1264 3.24358C15.7542 3.24358 16.2564 3.74581 16.2564 4.3736ZM19.4372 5.50363C19.5209 7.05218 19.5209 11.6978 19.4372 13.2464C19.3535 14.7531 19.0187 16.0505 17.9305 17.1805C16.8424 18.2687 15.5031 18.6035 13.9964 18.6872C12.4478 18.7709 7.80218 18.7709 6.25363 18.6872C4.74693 18.6035 3.4495 18.2687 2.31948 17.1805C1.23131 16.0505 0.896484 14.7531 0.812779 13.2464C0.729074 11.6978 0.729074 7.05218 0.812779 5.50363C0.896484 3.99693 1.23131 2.65765 2.31948 1.56948C3.4495 0.481306 4.74693 0.146484 6.25363 0.062779C7.80218 -0.0209263 12.4478 -0.0209263 13.9964 0.062779C15.5031 0.146484 16.8424 0.481306 17.9305 1.56948C19.0187 2.65765 19.3535 3.99693 19.4372 5.50363ZM17.4283 14.8786C17.9305 13.6649 17.805 10.7352 17.805 9.35407C17.805 8.01479 17.9305 5.0851 17.4283 3.82952C17.0935 3.03432 16.4657 2.36468 15.6705 2.07171C14.4149 1.56948 11.4852 1.69503 10.1459 1.69503C8.76479 1.69503 5.8351 1.56948 4.62137 2.07171C3.78432 2.40653 3.15653 3.03432 2.82171 3.82952C2.31948 5.0851 2.44503 8.01479 2.44503 9.35407C2.44503 10.7352 2.31948 13.6649 2.82171 14.8786C3.15653 15.7157 3.78432 16.3435 4.62137 16.6783C5.8351 17.1805 8.76479 17.055 10.1459 17.055C11.4852 17.055 14.4149 17.1805 15.6705 16.6783C16.4657 16.3435 17.1353 15.7157 17.4283 14.8786Z"
    fill="currentcolor"
  />
</svg>
